<?xml version="1.0" standalone="no"?>
<!DOCTYPE svg PUBLIC "-//W3C//DTD SVG 20010904//EN"
 "http://www.w3.org/TR/2001/REC-SVG-20010904/DTD/svg10.dtd">
<svg version="1.0" xmlns="http://www.w3.org/2000/svg"
 width="180" height="107" viewBox="0 0 2600.000000 1361.000000"
 preserveAspectRatio="xMidYMid meet">

<g transform="translate(0.000000,1361.000000) scale(0.100000,-0.100000)"
fill="#1652f0" stroke="none">
<path d="M12652 6918 l3 -2552 50 -18 c104 -37 331 -98 473 -127 429 -88 892
-101 1245 -36 708 132 1202 537 1400 1150 75 233 103 443 94 724 -17 600 -257
1072 -691 1363 -303 202 -655 296 -1071 285 -250 -7 -453 -45 -645 -122 -48
-19 -90 -35 -94 -35 -3 0 -6 432 -6 960 l0 960 -380 0 -380 0 2 -2552z m1644
97 c122 -22 204 -47 304 -95 277 -134 464 -383 532 -705 26 -126 28 -352 4
-500 -78 -474 -386 -792 -862 -889 -221 -45 -554 -37 -796 20 l-68 16 0 1004
0 1003 68 31 c238 111 571 157 818 115z"/>
<path d="M7890 9153 c-106 -17 -238 -94 -299 -176 -69 -91 -94 -159 -99 -264
-5 -114 18 -201 79 -292 53 -79 107 -125 198 -169 64 -31 87 -37 164 -40 110
-6 194 15 275 67 162 105 255 302 225 476 -44 256 -293 438 -543 398z"/>
<path d="M2319 7695 c-731 -100 -1280 -578 -1454 -1266 -43 -170 -58 -297 -58
-509 0 -262 34 -471 109 -682 142 -396 434 -720 814 -905 510 -249 1199 -253
1725 -10 61 28 112 52 114 53 2 2 -5 14 -15 27 -135 172 -223 305 -288 435
l-36 72 -37 -15 c-113 -48 -332 -85 -495 -85 -696 0 -1155 480 -1124 1175 9
218 46 364 133 524 161 299 434 473 817 521 180 23 415 -2 598 -64 49 -16 74
-21 77 -13 2 6 34 70 71 143 61 120 162 282 225 360 l25 31 -100 47 c-182 86
-349 135 -549 161 -131 18 -422 18 -552 0z"/>
<path d="M5120 7704 c-14 -2 -59 -9 -100 -15 -243 -34 -497 -132 -710 -274
-382 -254 -641 -678 -714 -1170 -74 -495 26 -991 277 -1368 238 -357 627 -611
1067 -696 460 -88 931 -19 1305 192 354 199 617 522 750 920 69 205 95 380 95
632 0 183 -10 285 -40 434 -47 225 -159 482 -290 666 -83 117 -251 283 -367
365 -235 164 -500 266 -793 306 -94 12 -413 17 -480 8z m418 -663 c256 -53
459 -189 596 -400 60 -92 79 -131 119 -251 52 -154 70 -276 70 -465 0 -387
-109 -669 -340 -885 -152 -142 -325 -217 -556 -241 -375 -39 -729 137 -921
458 -202 337 -222 876 -47 1248 59 125 107 193 206 290 98 97 157 136 285 192
168 72 396 93 588 54z"/>
<path d="M10300 7704 c-19 -2 -100 -11 -180 -20 -331 -36 -752 -133 -1030
-237 l-65 -24 -3 -1602 -2 -1601 380 0 380 0 0 1353 0 1354 118 27 c193 44
306 57 537 63 196 4 231 3 320 -16 204 -42 355 -149 428 -302 75 -155 70 -74
74 -1341 l4 -1138 375 0 375 0 -4 1218 c-4 1328 -1 1257 -62 1477 -65 232
-201 431 -378 553 -167 115 -332 176 -592 219 -86 14 -589 27 -675 17z"/>
<path d="M17325 7698 c-254 -28 -519 -105 -742 -214 l-93 -46 0 -328 0 -329
141 69 c157 76 329 136 494 171 95 21 138 24 320 24 239 0 285 -8 421 -75 131
-64 220 -176 255 -320 8 -34 13 -125 13 -240 l1 -185 -355 -6 c-367 -6 -489
-17 -689 -60 -507 -110 -822 -380 -897 -768 -18 -90 -19 -305 -4 -394 36 -198
113 -351 243 -479 261 -257 745 -384 1387 -365 371 12 779 62 1019 127 l42 11
-4 1237 c-3 1119 -5 1245 -21 1321 -101 501 -413 773 -969 846 -129 16 -428
18 -562 3z m813 -2460 l-3 -483 -130 -17 c-151 -19 -391 -23 -520 -7 -361 44
-555 212 -555 479 0 290 223 456 673 499 45 5 184 9 310 10 l227 1 -2 -482z"/>
<path d="M20365 7699 c-407 -52 -718 -248 -865 -544 -83 -169 -115 -357 -99
-583 36 -492 291 -743 929 -912 362 -96 523 -162 611 -250 60 -60 85 -110 99
-196 14 -84 6 -152 -25 -220 -46 -103 -120 -160 -265 -206 -68 -21 -94 -23
-265 -23 -146 0 -210 4 -275 18 -225 49 -460 149 -657 280 l-113 74 0 -358 0
-359 43 -27 c104 -66 319 -149 484 -188 459 -108 965 -71 1296 97 254 127 421
334 489 604 20 77 23 114 23 284 0 172 -3 206 -24 285 -72 278 -233 464 -526
605 -131 63 -239 101 -465 160 -224 58 -290 80 -397 132 -162 78 -237 183
-237 333 0 107 22 170 85 239 60 66 110 96 209 127 66 21 95 24 235 24 318 -1
549 -82 908 -319 l27 -18 0 350 0 350 -132 66 c-199 99 -375 150 -600 175
-113 13 -392 12 -493 0z"/>
<path d="M23540 7704 c-87 -11 -241 -47 -335 -78 -522 -175 -898 -601 -1046
-1183 -83 -328 -85 -741 -5 -1056 164 -644 646 -1085 1320 -1207 424 -77 953
-25 1330 129 90 37 213 101 259 135 16 12 17 38 15 344 l-3 330 -65 -39 c-311
-191 -642 -280 -1035 -282 -233 0 -416 38 -587 124 -311 156 -521 449 -554
775 l-7 64 1192 0 1191 0 0 223 c0 405 -32 639 -119 875 -146 396 -440 673
-836 787 -162 47 -247 58 -470 60 -115 2 -226 1 -245 -1z m305 -635 c219 -27
391 -123 497 -277 77 -112 134 -288 145 -449 l6 -93 -820 0 -820 0 13 57 c34
146 96 294 169 403 48 73 163 187 235 235 103 69 206 105 360 129 51 7 128 6
215 -5z"/>
<path d="M7590 5930 l0 -1710 380 0 380 0 -2 1708 -3 1707 -377 3 -378 2 0
-1710z"/>
</g>
</svg>
